<svg width="205" height="148" viewBox="0 0 205 148" fill="none" xmlns="http://www.w3.org/2000/svg">
<path d="M38.4546 5.68536C20.091 9.74633 6.13643 25.1329 1.50007 46.611C0.863703 49.4988 0.681885 52.4317 0.681885 60.2378C0.681885 68.9915 0.818248 70.7061 1.72734 74.8573C4.40916 86.6341 8.63643 94.8915 15.7273 102.066C19.5001 105.856 22.9546 108.293 27.9092 110.549C34.3637 113.482 36.5455 113.933 45.2273 113.933C52.4092 113.933 53.2728 113.843 57.2273 112.67C70.4546 108.744 80.1364 101.163 97.2273 81.4451C100.046 78.1963 102.5 75.5793 102.727 75.5793C102.955 75.5793 105.318 78.1963 108.046 81.4451C110.727 84.6488 116.227 90.6049 120.227 94.5756C129.182 103.555 134.364 107.435 142.046 110.865C147.773 113.482 150.364 113.933 158.409 113.888C165 113.888 166.046 113.752 169.773 112.624C177.455 110.323 183.864 106.262 189.818 100.08C197.364 92.2293 202.227 82.0317 204.409 69.7134C205.409 63.9829 205 50.2207 203.682 44.2195C198.955 22.9671 186.091 8.84389 168.409 5.54999C163.818 4.69267 153.318 4.96341 149.318 6.04633C135.546 9.83658 124.227 18.7256 106.409 39.7073C104.636 41.828 102.955 43.5427 102.773 43.5427C102.546 43.5427 99.2273 39.8878 95.3637 35.4207C80.8182 18.6354 70.5455 10.4232 59.5455 6.67804C55.5455 5.36951 54.7273 5.23414 48.4092 5.09877C43.5455 5.00853 40.6819 5.18902 38.4546 5.68536ZM53.7728 28.2012C62.3182 30.4122 70.1364 36.7293 83.3182 51.9805C86.2273 55.3646 88.8182 58.2976 89.091 58.4329C90.0455 59.0195 89.3637 60.1927 84.9092 65.5171C75.9092 76.2561 68.8182 82.9341 61.9546 86.9951C57.5455 89.6573 54.7728 90.65 53.9546 89.8378C53.5455 89.4317 53.3637 84.5585 53.1819 71.1573L52.9546 53.0183L51.7273 52.8829C50.9092 52.7927 49.4092 53.3341 47.4092 54.5073C45.7273 55.5 42.2273 57.0793 39.6819 57.9817C35.591 59.4707 35.0001 59.7866 35.0001 60.689C35.0001 61.7268 35.2273 61.8622 37.8182 62.4488C40.4546 63.0354 40.4546 62.9451 40.4546 77.1585C40.4546 86.0476 40.3182 90.289 39.9546 90.5146C38.8182 91.1915 32.0001 87.2207 29.0455 84.0622C25.2728 80.1817 22.2728 73.9098 21.0455 67.5024C20.0455 62.3585 20.4546 53.289 21.8182 48.9573C25.1364 38.5341 32.6364 30.5476 41.3637 28.1561C44.2273 27.389 50.6819 27.389 53.7728 28.2012ZM166.591 28.6524C174.591 31.45 180.818 38.6244 183.636 48.2805C185.046 53.1085 185.364 61.7268 184.318 66.8256C181.364 81.4 170.546 91.5976 158.091 91.5976C153.636 91.5976 150.727 90.8756 146.136 88.6195C139 85.1902 133.364 80.0915 121.5 66.3744L115.5 59.4707L119.636 54.5073C130.591 41.3768 138.5 34.2476 146.227 30.5927C151.273 28.1561 153.591 27.6146 158.864 27.5695C162.591 27.5695 164 27.75 166.591 28.6524Z" fill="white"/>
<path d="M43.591 38.6695C42.1365 39.5268 40.9092 41.5122 40.9092 42.8658C40.9092 44.2646 42.1819 46.2049 43.6365 47.1073C44.4546 47.5585 45.9546 47.8293 47.6819 47.8293C50.2274 47.8293 50.6365 47.6939 52.1365 46.2951C53.591 44.9866 53.8637 44.4902 53.8637 42.8658C53.8637 41.2414 53.591 40.7451 52.1365 39.4366C50.591 38.0378 50.2274 37.9024 47.6365 37.9024C45.8183 37.9024 44.3637 38.1732 43.591 38.6695Z" fill="white"/>
<path d="M134.773 116.821C131.818 118.174 130 120.701 130 123.454C130 124.266 129.546 124.852 128.409 125.484C126.455 126.657 126.409 127.063 128.182 127.379L129.546 127.65V134.418C129.546 140.645 129.455 141.232 128.682 141.683C128.182 141.909 127.364 142.134 126.864 142.134C126.318 142.134 125.909 142.45 125.909 142.811C125.909 143.398 126.955 143.488 132.727 143.488C138.046 143.488 139.546 143.352 139.546 142.901C139.546 142.585 138.682 142.134 137.636 141.863L135.682 141.457V134.463V127.469L138.546 127.334C140.636 127.244 141.364 127.018 141.364 126.567C141.364 126.071 140.773 125.89 139 125.89C135.591 125.89 135.318 125.619 135.546 122.326C135.727 119.528 136.727 117.768 138.091 117.768C138.455 117.768 139.455 118.355 140.318 119.122C141.136 119.844 142.046 120.476 142.318 120.476C143.046 120.476 145 118.355 145 117.543C145 115.828 138 115.332 134.773 116.821Z" fill="white"/>
<path d="M7.59094 119.483C6.59094 120.566 6.6364 121.513 7.6364 122.416C8.6364 123.318 11.4091 123.409 12.1819 122.641C12.8637 121.965 12.8637 119.889 12.1819 119.212C11.3182 118.355 8.45458 118.535 7.59094 119.483Z" fill="white"/>
<path d="M18.7273 119.212C18.8636 119.528 19.7727 119.934 20.8182 120.16L22.7273 120.521V122.867C22.7273 124.176 22.4091 128.643 22.0454 132.884C21.4545 139.743 21.3182 140.645 20.4091 141.322C19.8636 141.773 18.9545 142.134 18.3636 142.134C17.6818 142.134 17.2727 142.405 17.2727 142.811C17.2727 143.398 18.2273 143.488 22.9545 143.488C27.4545 143.488 28.6363 143.352 28.6363 142.856C28.6363 142.495 27.9091 142.134 26.8636 141.954C23.9091 141.502 23.8636 141.322 24.5454 132.433C24.8636 128.101 25.2273 124.537 25.4091 124.537C25.5454 124.537 27.7727 128.552 30.2727 133.471C34.1363 140.961 35.0454 142.36 35.9545 142.495C36.9545 142.585 37.5 141.773 41.8182 133.471L46.5909 124.311L46.8636 132.207C47.0454 136.539 46.9545 140.465 46.7727 140.871C46.5 141.322 45.6818 141.683 44.6363 141.773C43.5 141.863 42.9545 142.134 42.9545 142.585C42.9545 143.172 44.0909 143.262 49.7727 143.398C53.5 143.443 56.8182 143.398 57.1818 143.262C58.2273 142.856 56.9091 141.683 55.4545 141.683C54.7727 141.683 54 141.412 53.7273 141.096C53.0909 140.374 52.2727 121.874 52.8182 120.791C53.0909 120.295 53.7273 120.024 54.7727 120.024C55.9091 120.024 56.3636 119.799 56.3636 119.348C56.3636 118.761 55.5909 118.671 51.3182 118.761L46.2727 118.896L42.1363 126.883C39.8182 131.305 37.8636 134.915 37.7273 134.915C37.5909 134.915 35.6363 131.305 33.3182 126.883L29.1818 118.896L23.8636 118.761C19.7273 118.671 18.5909 118.761 18.7273 119.212Z" fill="white"/>
<path d="M116.682 119.483C115.091 121.198 116.409 123.183 119.136 123.183C121.045 123.183 121.818 122.506 121.818 120.927C121.818 120.295 121.591 119.528 121.273 119.212C120.409 118.355 117.545 118.535 116.682 119.483Z" fill="white"/>
<path d="M192.727 123.228C192.091 123.769 190.636 124.672 189.455 125.259C187.091 126.477 186.636 127.244 188.364 127.244C189 127.244 189.636 127.469 189.773 127.74C189.955 127.966 190.046 130.989 190.046 134.418C189.955 140.555 190 140.69 191.136 142.089C192.273 143.398 192.546 143.488 195.364 143.488C199 143.488 202.455 142.179 202.182 140.916C202.091 140.42 201.682 140.149 201.136 140.239C200.636 140.284 199.5 140.465 198.636 140.6C196.091 141.006 195.864 140.42 196 133.516L196.136 127.469L199 127.334C201.046 127.244 201.818 127.018 201.818 126.567C201.818 126.116 201.046 125.89 199 125.8L196.136 125.665L195.909 124.085C195.636 122.145 194.409 121.829 192.727 123.228Z" fill="white"/>
<path d="M9.77288 125.619C9.27288 126.026 7.90925 126.657 6.72743 127.018C3.9547 127.966 3.72743 128.372 5.4547 129.274L6.81834 129.996V135.862V141.683L5.4547 141.954C4.72743 142.134 4.09106 142.54 4.09106 142.856C4.09106 143.352 5.27288 143.488 10.0002 143.488C14.5456 143.488 15.9092 143.352 15.9092 142.901C15.9092 142.585 15.2274 142.134 14.4547 141.909L12.9547 141.457L12.7274 133.335C12.5002 125.619 12.4547 125.213 11.5911 125.078C11.0911 125.033 10.2729 125.259 9.77288 125.619Z" fill="white"/>
<path d="M118.864 125.619C118.364 126.026 117 126.657 115.818 127.018C113.046 127.966 112.818 128.372 114.546 129.274L115.909 129.996V135.862V141.683L114.546 141.954C113.818 142.134 113.182 142.54 113.182 142.856C113.182 143.352 114.364 143.488 119.091 143.488C123.636 143.488 125 143.352 125 142.901C125 142.585 124.318 142.134 123.546 141.909L122.046 141.457L121.818 133.335C121.591 125.619 121.546 125.213 120.682 125.078C120.182 125.033 119.364 125.259 118.864 125.619Z" fill="white"/>
<path d="M88.7728 126.522C87.7274 127.109 86.2728 127.785 85.5001 128.056C83.9092 128.598 83.591 129.951 85.0001 129.951C86.3183 129.951 86.8183 131.621 86.8183 135.952C86.8183 140.826 86.5456 141.683 84.9547 141.999C84.2274 142.134 83.6365 142.54 83.6365 142.856C83.6365 143.352 84.8637 143.488 89.8183 143.488C94.2274 143.488 95.9547 143.352 95.8183 142.991C95.7274 142.676 94.9547 142.224 94.091 141.954L92.5001 141.457L92.3637 136.72C92.2728 134.102 92.3637 131.53 92.5001 130.989C92.8183 129.59 95.0001 128.598 97.7274 128.598C99.591 128.598 100.273 128.823 101.136 129.726C102.227 130.763 102.273 131.079 102.273 136.268V141.683L100.909 141.954C100.182 142.134 99.5456 142.54 99.5456 142.856C99.5456 143.352 100.773 143.488 105.727 143.488C110.136 143.488 111.864 143.352 111.727 142.991C111.636 142.676 110.864 142.224 110 141.954L108.409 141.457L108.182 135.591C107.909 128.959 107.546 127.876 104.864 126.612C102.318 125.439 97.0456 125.62 94.2728 127.018C93.0456 127.65 92.0001 128.146 91.9547 128.146C91.8637 128.146 91.8183 127.515 91.8183 126.793C91.8183 125.168 91.3637 125.123 88.7728 126.522Z" fill="white"/>
<path d="M65.4547 126.612C61.5456 127.966 58.9092 130.763 60.2274 132.162C61.3638 133.335 63.7729 132.388 65.9092 129.906C67.682 127.785 67.9547 127.65 69.7274 127.785L71.5911 127.921V130.357V132.794L67.8183 134.057C61.5911 136.133 60.0002 137.441 60.0002 140.51C60.0002 142.676 61.2729 143.488 64.682 143.488C66.5911 143.488 67.9092 143.172 69.5911 142.36L71.8638 141.187L73.3183 142.405C74.5456 143.443 75.0456 143.578 77.1365 143.398C78.6365 143.262 80.0911 142.811 80.8183 142.27C82.4092 141.096 82.4547 140.059 80.9092 140.284C77.7274 140.735 78.0002 141.232 77.7274 134.102C77.4547 125.98 77.3638 125.89 71.4092 125.89C69.0911 125.935 66.682 126.206 65.4547 126.612ZM71.8183 136.629C71.8183 139.021 70.2729 140.465 67.9092 140.239C66.4092 140.104 66.1365 139.923 66.0002 138.976C65.8638 137.622 67.2274 136.178 69.3183 135.456C71.5911 134.689 71.8183 134.779 71.8183 136.629Z" fill="white"/>
<path d="M148 126.567C143.909 128.101 141.818 130.854 141.818 134.644C141.818 138.569 143.909 141.457 147.682 142.811C150.318 143.713 156.5 143.713 159.455 142.766C162.364 141.818 164.364 140.284 163.955 139.246C163.682 138.569 163.409 138.615 161.318 139.698C159.273 140.735 158.5 140.871 155.637 140.69C151.955 140.51 150.546 139.788 148.727 137.126C148 136.088 147.727 135.095 147.818 134.012L147.955 132.433L156.046 132.298L164.091 132.207V130.944C164.091 129.5 162.909 128.056 160.773 126.928C158.773 125.845 150.5 125.619 148 126.567ZM157.318 128.146C158.5 128.778 158.409 129.906 157.182 130.132C155 130.583 149.682 130.899 148.955 130.583C148 130.222 148.318 129.68 150.182 128.552C151.727 127.605 155.818 127.379 157.318 128.146Z" fill="white"/>
<path d="M170.591 126.748C168.455 127.74 167.727 128.778 167.727 130.854C167.727 132.974 169.318 134.148 174.182 135.772C179.818 137.622 181.046 138.84 179.091 140.78C178.409 141.457 177.591 141.683 175.864 141.683C173.091 141.683 171.364 140.645 170.273 138.299C169.182 136.088 167.909 136.178 167.5 138.524C166.864 142.36 168.5 143.488 174.864 143.488C180.955 143.443 183.636 142.179 184.591 138.976C185 137.622 184.955 137.035 184.364 135.907C183.455 134.193 182.727 133.741 177.546 131.982C173.091 130.493 171.909 129.455 173.364 128.327C173.864 127.966 175.273 127.695 176.5 127.695C178.591 127.695 178.909 127.876 180.546 129.59C182.409 131.621 183 131.53 183.409 129.274C183.591 128.417 183.455 127.605 183 127.018C182.409 126.206 181.727 126.116 177.409 125.98C173.318 125.89 172.182 126.026 170.591 126.748Z" fill="white"/>
</svg>
