<svg width="19" height="19" viewBox="0 0 19 19" fill="none" xmlns="http://www.w3.org/2000/svg">
<path d="M17.8047 17.5001H8.36406L16.0891 9.78452L18.5547 7.30952C18.6947 7.17091 18.8059 7.00592 18.8817 6.82408C18.9576 6.64225 18.9967 6.44717 18.9967 6.25015C18.9967 6.05312 18.9576 5.85805 18.8817 5.67621C18.8059 5.49438 18.6947 5.32938 18.5547 5.19077L14.3641 1.00015C14.0817 0.721895 13.7011 0.565918 13.3047 0.565918C12.9082 0.565918 12.5277 0.721895 12.2453 1.00015L0.995313 12.2501C0.85553 12.3889 0.74462 12.5539 0.668991 12.7357C0.593362 12.9176 0.554513 13.1126 0.554688 13.3095V17.5001C0.554688 17.898 0.712723 18.2795 0.994028 18.5608C1.27533 18.8421 1.65686 19.0001 2.05469 19.0001H17.8047C18.0036 19.0001 18.1944 18.9211 18.335 18.7805C18.4757 18.6398 18.5547 18.4491 18.5547 18.2501C18.5547 18.0512 18.4757 17.8605 18.335 17.7198C18.1944 17.5792 18.0036 17.5001 17.8047 17.5001ZM2.05469 13.3095L11.0547 4.30952L15.2453 8.50015L6.24531 17.5001H2.05469V13.3095Z" fill="#0B75F1"/>
</svg>
