<svg width="14" height="14" viewBox="0 0 14 14" fill="none" xmlns="http://www.w3.org/2000/svg">
<path d="M12.8501 9.83117C13.2799 8.94935 13.5022 7.9809 13.5001 6.99993C13.4982 5.56816 13.0244 4.17693 12.1522 3.04148C11.28 1.90604 10.058 1.08967 8.6751 0.718675H8.64385C7.62985 0.45171 6.56625 0.434505 5.54415 0.668532C4.52205 0.902559 3.57191 1.38085 2.7751 2.06243L2.69385 2.13743C1.70446 3.01062 1.00457 4.16453 0.687416 5.44546C0.370257 6.72639 0.450875 8.07354 0.918533 9.30751C1.38619 10.5415 2.21869 11.6037 3.30516 12.3526C4.39162 13.1016 5.68049 13.5018 7.0001 13.4999H7.1501C8.33034 13.4708 9.48051 13.1216 10.4778 12.4898C11.4751 11.8579 12.2821 10.9671 12.8126 9.91243L12.8501 9.83117ZM12.5001 6.99993C12.499 7.65472 12.3826 8.30421 12.1563 8.91867L9.25635 7.13742C9.13673 7.06223 9.00253 7.01324 8.8626 6.99368L7.4376 6.80618C7.25456 6.78251 7.06854 6.80964 6.89988 6.88459C6.73122 6.95955 6.58643 7.07945 6.48135 7.23117H5.94385L5.70635 6.73743C5.63981 6.60107 5.54349 6.48141 5.42449 6.3873C5.30549 6.29318 5.16686 6.22701 5.01885 6.19368L4.60635 6.10617L4.7626 5.73743C4.80152 5.64691 4.86601 5.56972 4.94817 5.51532C5.03032 5.46092 5.12657 5.43168 5.2251 5.43118H6.23135C6.39969 5.43042 6.56516 5.38744 6.7126 5.30618L7.4751 4.88118C7.54239 4.8447 7.60529 4.80066 7.6626 4.74993L9.34385 3.22492C9.4902 3.09661 9.59508 2.92767 9.64516 2.73959C9.69524 2.5515 9.68826 2.35278 9.6251 2.16868C10.4946 2.6409 11.2205 3.33894 11.7265 4.1892C12.2325 5.03947 12.4998 6.01049 12.5001 6.99993ZM1.5001 6.99993C1.49867 6.13749 1.70217 5.28705 2.09385 4.51868L2.74385 6.26242C2.80329 6.41861 2.90069 6.55754 3.02727 6.66665C3.15385 6.77577 3.30561 6.85164 3.46885 6.88742L3.8126 6.96243H3.81885L4.56885 7.12493C4.64308 7.13994 4.7128 7.17204 4.77247 7.21869C4.83214 7.26534 4.88011 7.32525 4.9126 7.39368L5.04385 7.66867C5.12654 7.83699 5.25463 7.97884 5.41366 8.07823C5.57268 8.17762 5.75632 8.23059 5.94385 8.23117H6.01885L5.5376 9.30617C5.45627 9.4845 5.4295 9.68289 5.46064 9.87639C5.49178 10.0699 5.57944 10.2499 5.7126 10.3937L6.71885 11.4812C6.77065 11.5391 6.80879 11.6079 6.83042 11.6826C6.85206 11.7572 6.85665 11.8358 6.84385 11.9124L6.73135 12.4937C5.32134 12.4232 3.99228 11.8138 3.01874 10.7914C2.04519 9.76897 1.50154 8.41169 1.5001 6.99993Z" fill="white"/>
</svg>
