<svg width="61" height="61" viewBox="0 0 61 61" fill="none" xmlns="http://www.w3.org/2000/svg">
<g filter="url(#filter0_bd_478_2979)">
<path d="M30.3042 46.665C41.3499 46.665 50.3042 37.7107 50.3042 26.665C50.3042 15.6193 41.3499 6.66504 30.3042 6.66504C19.2585 6.66504 10.3042 15.6193 10.3042 26.665C10.3042 37.7107 19.2585 46.665 30.3042 46.665Z" fill="#E7F1FE"/>
</g>
<path d="M23.9041 26.6659V23.8179C23.9041 20.2819 26.4081 18.8339 29.4721 20.6019L31.9441 22.0259L34.4161 23.4499C37.4801 25.2179 37.4801 28.1139 34.4161 29.8819L31.9441 31.3059L29.4721 32.7299C26.4081 34.4979 23.9041 33.0499 23.9041 29.5139V26.6659Z" fill="#021123"/>
<defs>
<filter id="filter0_bd_478_2979" x="-89.6958" y="-93.335" width="240" height="240" filterUnits="userSpaceOnUse" color-interpolation-filters="sRGB">
<feFlood flood-opacity="0" result="BackgroundImageFix"/>
<feGaussianBlur in="BackgroundImageFix" stdDeviation="50"/>
<feComposite in2="SourceAlpha" operator="in" result="effect1_backgroundBlur_478_2979"/>
<feColorMatrix in="SourceAlpha" type="matrix" values="0 0 0 0 0 0 0 0 0 0 0 0 0 0 0 0 0 0 127 0" result="hardAlpha"/>
<feOffset dy="4"/>
<feGaussianBlur stdDeviation="5"/>
<feComposite in2="hardAlpha" operator="out"/>
<feColorMatrix type="matrix" values="0 0 0 0 0 0 0 0 0 0 0 0 0 0 0 0 0 0 0.1 0"/>
<feBlend mode="normal" in2="effect1_backgroundBlur_478_2979" result="effect2_dropShadow_478_2979"/>
<feBlend mode="normal" in="SourceGraphic" in2="effect2_dropShadow_478_2979" result="shape"/>
</filter>
</defs>
</svg>
