<svg width="19" height="19" viewBox="0 0 19 19" fill="none" xmlns="http://www.w3.org/2000/svg">
<path d="M17.8049 17.5001H8.36431L16.0893 9.78452L18.5549 7.30952C18.695 7.17091 18.8061 7.00592 18.882 6.82408C18.9578 6.64225 18.9969 6.44717 18.9969 6.25015C18.9969 6.05312 18.9578 5.85805 18.882 5.67621C18.8061 5.49438 18.695 5.32938 18.5549 5.19077L14.3643 1.00015C14.0819 0.721895 13.7014 0.565918 13.3049 0.565918C12.9085 0.565918 12.528 0.721895 12.2456 1.00015L0.995557 12.2501C0.855774 12.3889 0.744864 12.5539 0.669235 12.7357C0.593606 12.9176 0.554757 13.1126 0.554932 13.3095V17.5001C0.554932 17.898 0.712967 18.2795 0.994272 18.5608C1.27558 18.8421 1.65711 19.0001 2.05493 19.0001H17.8049C18.0038 19.0001 18.1946 18.9211 18.3353 18.7805C18.4759 18.6398 18.5549 18.4491 18.5549 18.2501C18.5549 18.0512 18.4759 17.8605 18.3353 17.7198C18.1946 17.5792 18.0038 17.5001 17.8049 17.5001ZM2.05493 13.3095L11.0549 4.30952L15.2456 8.50015L6.24556 17.5001H2.05493V13.3095Z" fill="#0B75F1"/>
</svg>
